<?xml version="1.0" encoding="utf-8"?>
<!-- Generator: Adobe Illustrator 19.2.1, SVG Export Plug-In . SVG Version: 6.00 Build 0)  -->
<svg version="1.1" id="图层_1" xmlns="http://www.w3.org/2000/svg" xmlns:xlink="http://www.w3.org/1999/xlink" x="0px" y="0px"
	 viewBox="0 0 1749.2 849.1" style="enable-background:new 0 0 1749.2 849.1;" xml:space="preserve">
<style type="text/css">
	.st0{fill:#FFFFFF;}
	.st1{fill:none;stroke:#36A8AE;stroke-width:33.3797;stroke-miterlimit:10;}
	.st2{fill:#36A8AE;}
	.st3{fill:#392863;}
	.st4{fill:#F0821A;}
	.st5{fill:#2FA0A4;}
	.st6{fill:#1F2E50;}
</style>
<rect class="st0" width="1749.2" height="849.1"/>
<g>
	<g>
		<circle class="st1" cx="393.1" cy="243.6" r="52.6"/>
		
			<ellipse transform="matrix(1.466417e-002 -0.9999 0.9999 1.466417e-002 127.9004 906.9688)" class="st1" cx="524.1" cy="388.6" rx="52.6" ry="52.6"/>
		<circle class="st1" cx="209.7" cy="429.8" r="52.6"/>
		<circle class="st1" cx="395.5" cy="605.5" r="52.6"/>
		<path class="st2" d="M232,383.7l26.7,23.5c0.3,0.3,0.8,0.2,1.1-0.1l99.8-113.3c0.3-0.3,0.2-0.8-0.1-1.1l-26.7-23.5
			c-0.3-0.3-0.8-0.2-1.1,0.1l-99.8,113.3C231.6,382.9,231.7,383.4,232,383.7z"/>
		<path class="st2" d="M245,448.5l-22.4,27.7c-0.3,0.3-0.2,0.8,0.1,1.1l137.8,111.2c0.3,0.3,0.8,0.2,1.1-0.1l22.4-27.7
			c0.3-0.3,0.2-0.8-0.1-1.1L246.1,448.4C245.7,448.1,245.3,448.2,245,448.5z"/>
		<path class="st2" d="M436.4,472.1l-35.5-3.4c-0.4,0-0.8,0.3-0.8,0.7l-8.2,84.8c0,0.4,0.3,0.8,0.7,0.8l35.5,3.4
			c0.4,0,0.8-0.3,0.8-0.7l8.2-84.8C437.1,472.5,436.8,472.1,436.4,472.1z"/>
		<path class="st2" d="M496.1,418.8l-26.2-24.2c-0.3-0.3-0.8-0.3-1.1,0l-68.5,74.2c-0.3,0.3-0.3,0.8,0,1.1l26.2,24.2
			c0.3,0.3,0.8,0.3,1.1,0l68.5-74.2C496.4,419.6,496.4,419.1,496.1,418.8z"/>
	</g>
	<g>
		<path class="st3" d="M816.3,498.9h-86.8l-18.8,68.7h-54.2L742.2,300h62.9l86.1,267.6h-56.1L816.3,498.9z M804.7,457.3l-8-29.3
			c-8.3-27.8-15.6-58.6-23.5-87.5h-1.4c-6.9,29.3-14.8,59.7-22.8,87.5l-8,29.3H804.7z"/>
		<path class="st4" d="M911.7,303.6c0-17.4,13.4-28.9,31.8-28.9c18.1,0,31.5,11.6,31.5,28.9c0,16.6-13.4,28.9-31.5,28.9
			C925,332.6,911.7,320.3,911.7,303.6z M916.7,365.1h52.8v202.5h-52.8V365.1z"/>
		<path class="st3" d="M1019.1,300h54.6l21.3,130.5c4,28.2,8.3,56.8,12.3,85.3h1.4c5.4-28.6,11.2-57.5,17-85.3l31.1-130.5h45.6
			l31.1,130.5c5.8,27.5,11.2,56.4,17,85.3h1.8c4-28.9,8-57.5,11.9-85.3l21-130.5h51l-49.5,267.6h-66.5l-30-132.4
			c-4.3-21-8.3-41.6-11.6-61.8h-1.4c-3.6,20.3-7.2,40.9-11.6,61.8l-29.3,132.4h-65.5L1019.1,300z"/>
		<path class="st3" d="M1392.8,300h88.6c55,0,96.9,15.9,96.9,65.8c0,24.6-13.7,49.9-36.5,57.9v1.8c28.9,6.9,50.3,27.1,50.3,63.3
			c0,53.9-44.8,78.8-103.8,78.8h-95.5V300z M1477.4,408.9c34,0,48.8-13.7,48.8-35.1c0-23.5-15.9-32.9-48.1-32.9h-31.8v68H1477.4z
			 M1483.6,526.4c36.5,0,56.4-13,56.4-40.9c0-26-19.5-36.9-56.4-36.9h-37.2v77.8H1483.6z"/>
	</g>
</g>
</svg>
